# xmcd
# 
# Track frame offsets:
#     150
#     15766
#     36143
#     62486
#     81174
# 
# Disc length: 1286
# 
# Revision: 0
# Processed by: cddbd v1.5.2PL0 Copyright (c) Steve Scherf et al.
# Submitted via: fre:ac v1.0.17
# 
DISCID=2b050405
DTITLE=The 45s - The 45's
DYEAR=2007
DGENRE=Rock
TTITLE0=kick back
TTITLE1=twenty fout - eighteen
TTITLE2=keep your nose to the grindstone
TTITLE3=dear Sally
TTITLE4=sex on frets
EXTD=
EXTT0=
EXTT1=
EXTT2=
EXTT3=
EXTT4=
PLAYORDER=
